<svg width="1000" height="1000" version="1.1" xmlns="http://www.w3.org/2000/svg"><path fill="#eac1df" d="M 500 0 L 500 250 L 375 250  z"/><path fill="#eac1df" d="M 750 250 L 500 250 L 500 125  z"/><path fill="#eac1df" d="M 500 1000 L 500 750 L 625 750  z"/><path fill="#eac1df" d="M 250 750 L 500 750 L 500 875  z"/><path fill="#eac1df" d="M 250 250 L 250 500 L 125 500  z"/><path fill="#eac1df" d="M 1000 500 L 750 500 L 750 375  z"/><path fill="#eac1df" d="M 750 750 L 750 500 L 875 500  z"/><path fill="#eac1df" d="M 0 500 L 250 500 L 250 625  z"/><path fill="#d684c0" d="M 41.66666666666666 125 C 41.66666666666666 78.97626666666666, 78.97626666666666 41.66666666666666, 125 41.66666666666666 C 171.02373333333333 41.66666666666666, 208.33333333333334 78.97626666666666, 208.33333333333334 125 C 208.33333333333334 171.02373333333333, 171.02373333333333 208.33333333333334, 125 208.33333333333334 C 78.97626666666666 208.33333333333334, 41.66666666666666 171.02373333333333, 41.66666666666666 125  z"/><path fill="#d684c0" d="M 791.6666666666666 125 C 791.6666666666666 78.97626666666666, 828.9762666666667 41.66666666666666, 875 41.66666666666666 C 921.0237333333333 41.66666666666666, 958.3333333333333 78.97626666666666, 958.3333333333333 125 C 958.3333333333333 171.02373333333333, 921.0237333333333 208.33333333333334, 875 208.33333333333334 C 828.9762666666667 208.33333333333334, 791.6666666666666 171.02373333333333, 791.6666666666666 125  z"/><path fill="#d684c0" d="M 791.6666666666666 875 C 791.6666666666666 828.9762666666667, 828.9762666666667 791.6666666666666, 875 791.6666666666666 C 921.0237333333333 791.6666666666666, 958.3333333333333 828.9762666666667, 958.3333333333333 875 C 958.3333333333333 921.0237333333333, 921.0237333333333 958.3333333333333, 875 958.3333333333333 C 828.9762666666667 958.3333333333333, 791.6666666666666 921.0237333333333, 791.6666666666666 875  z"/><path fill="#d684c0" d="M 41.66666666666666 875 C 41.66666666666666 828.9762666666667, 78.97626666666666 791.6666666666666, 125 791.6666666666666 C 171.02373333333333 791.6666666666666, 208.33333333333334 828.9762666666667, 208.33333333333334 875 C 208.33333333333334 921.0237333333333, 171.02373333333333 958.3333333333333, 125 958.3333333333333 C 78.97626666666666 958.3333333333333, 41.66666666666666 921.0237333333333, 41.66666666666666 875  z"/><path fill="#d684c0" d="M 350 500 C 350 417.15728, 417.15728 350, 500 350 C 582.84272 350, 650 417.15728, 650 500 C 650 582.84272, 582.84272 650, 500 650 C 417.15728 650, 350 582.84272, 350 500  z"/><path fill="#d684c0" d=""/><path fill="#d684c0" d=""/><path fill="#d684c0" d=""/></svg>